PathFileType  4	(X/Y/Z) C:\Users\antoi\Documents\MyRepositories\mobilecap\ResultsAnalysis
DataRate	CameraRate	NumFrames	NumMarkers	Units	OrigDataRate	OrigDataStartFrame	OrigNumFrames
100.0	100.0	7	51	mm	100.0	59	156
Frame#	Time	r_knee			r_shank_antsup			r_ankle			r_calc			r_5meta			r_toe			L_knee			L_shank_antsup			L_ankle			L_calc			L_5meta			L_toe			r_sh2			r_sh3			r_sh4			L_sh2			L_sh3			r_thigh1			r_thigh2			r_thigh3			r_thigh4			r_thigh5			L_thigh1			L_thigh2			L_thigh3			L_thigh4			r.ASIS			r.PSIS			L.ASIS			L.PSIS			C7			R_Shoulder			L_Shoulder			R_Sternum			L_Sternum			R_humerus			R_elbow_med			R_elbow_lat			R_forearm			R_wrist_radius			R_wrist_ulna			L_humerus			L_elbow_med			L_elbow_lat			L_forearm			L_wrist_radius			L_wrist_ulna			R_HJC			L_HJC			R_HJC_reg			L_HJC_reg			
		X1	Y1	Z1	X2	Y2	Z2	X3	Y3	Z3	X4	Y4	Z4	X5	Y5	Z5	X6	Y6	Z6	X7	Y7	Z7	X8	Y8	Z8	X9	Y9	Z9	X10	Y10	Z10	X11	Y11	Z11	X12	Y12	Z12	X13	Y13	Z13	X14	Y14	Z14	X15	Y15	Z15	X16	Y16	Z16	X17	Y17	Z17	X18	Y18	Z18	X19	Y19	Z19	X20	Y20	Z20	X21	Y21	Z21	X22	Y22	Z22	X23	Y23	Z23	X24	Y24	Z24	X25	Y25	Z25	X26	Y26	Z26	X27	Y27	Z27	X28	Y28	Z28	X29	Y29	Z29	X30	Y30	Z30	X31	Y31	Z31	X32	Y32	Z32	X33	Y33	Z33	X34	Y34	Z34	X35	Y35	Z35	X36	Y36	Z36	X37	Y37	Z37	X38	Y38	Z38	X39	Y39	Z39	X40	Y40	Z40	X41	Y41	Z41	X42	Y42	Z42	X43	Y43	Z43	X44	Y44	Z44	X45	Y45	Z45	X46	Y46	Z46	X47	Y47	Z47	X48	Y48	Z48	X49	Y49	Z49	X50	Y50	Z50	X51	Y51	Z51	

59	0.58000000	337.82279	462.99051	-117.13946	333.53303	339.09736	-144.76717	177.91985	107.47263	-185.24340	123.10040	77.43289	-238.78362	279.27326	37.60759	-155.53390	319.77054	51.13093	-197.85599	652.88232	467.57661	-420.93710	731.93664	397.83691	-375.94112	789.56925	99.66977	-393.82288	760.27269	47.26201	-348.82365	925.88122	103.60424	-393.03088	941.57876	145.29350	-342.38018	291.81714	239.29725	-167.86560	280.67299	348.93107	-91.74545	222.22641	257.49105	-123.25602	677.82184	394.29857	-446.06319	719.87999	280.79045	-456.21355	521.67673	731.84443	-109.74189	495.31996	623.23706	-117.41870	440.14759	609.86820	-79.64871	418.94955	748.97504	-58.70749	391.56529	638.67009	-69.32076	590.44874	753.87908	-428.23026	655.75052	635.15731	-422.82719	493.35217	707.27693	-462.74988	562.56006	583.58778	-452.38138	561.30676	901.36918	-135.64938	381.89216	953.15666	-212.91507	571.86324	901.83699	-381.61108	382.82395	945.43973	-328.74900	483.66706	1396.49603	-233.54637	545.76735	1340.22974	-92.39843	526.71567	1377.43005	-398.00519	600.87986	1322.10937	-229.70219	597.63215	1323.03123	-274.47256	556.47858	1210.68026	-34.32734	459.65084	1019.54623	-67.52601	498.57912	1025.30549	-1.73854	570.39217	918.94046	-1.41933	622.66986	832.92110	-17.75615	595.54879	814.73988	2.59111	487.33134	1244.80894	-481.38993	375.11928	1073.94853	-437.42135	367.86081	1098.43877	-506.09651	397.95266	1009.97719	-557.17643	421.47918	883.20587	-578.34303	393.39428	881.16351	-588.18723	470.15979	833.62645	-165.47661	482.75866	827.74601	-354.34314	487.28075	843.51324	-166.65955	488.58457	832.71565	-328.78008	
60	0.59000000	344.54863	462.84562	-116.70761	338.28735	338.68817	-143.91284	179.32034	108.98678	-184.48839	123.78833	80.25212	-238.05729	279.51752	37.49493	-155.12797	320.31364	50.58284	-197.35146	662.19525	465.45201	-419.68937	740.06660	394.55579	-375.22194	794.94372	96.26695	-392.46288	765.12166	44.83517	-347.36165	931.72219	98.46324	-391.69396	947.80423	140.09374	-341.11261	294.96661	239.67749	-166.94106	285.47533	349.75697	-91.22684	225.53414	259.29335	-122.70953	685.67801	391.20192	-445.19823	726.60206	277.36109	-455.07785	531.17789	729.72573	-108.77751	503.79781	621.53374	-116.40384	448.44389	608.63890	-79.15041	428.08055	747.93751	-57.95681	399.93058	637.76649	-69.08708	602.39181	752.74230	-427.29104	666.77505	633.54560	-421.31010	505.10722	706.72309	-462.51555	573.49556	582.54845	-451.70220	572.84054	899.21975	-134.75059	393.94001	951.86069	-212.56037	584.16442	900.64544	-380.99509	395.00215	944.39306	-328.33103	494.19597	1395.13080	-237.06901	557.21820	1340.79554	-95.53086	536.73872	1375.30960	-401.33503	611.93180	1321.73145	-232.83655	608.43429	1322.13917	-277.69536	568.22464	1211.53410	-36.65512	471.15995	1020.39389	-68.67542	510.11945	1026.37828	-3.05042	581.61035	919.76609	-2.48977	633.43141	833.46990	-18.57438	606.57357	815.43235	2.14066	497.35758	1241.90640	-483.37063	386.56796	1070.71598	-437.17184	378.40829	1094.80017	-505.96433	408.12221	1006.06996	-556.67510	430.93410	878.93348	-576.90883	403.08194	877.02770	-586.83921	481.66045	831.85551	-165.25469	494.78337	826.63286	-354.10504	498.79846	841.90161	-166.02808	500.28744	831.43267	-328.38225	
61	0.60000000	351.58663	462.69876	-116.36773	343.25090	338.34494	-143.09006	180.91817	110.70593	-183.70131	124.67278	83.32888	-237.30779	279.81902	37.41374	-154.70388	320.91519	49.97583	-196.84153	671.52553	463.13433	-418.25534	747.94448	391.00373	-374.11173	799.31440	92.69660	-391.11192	768.54772	42.75946	-346.01081	936.30907	92.28233	-389.97992	953.13364	133.53727	-339.31809	298.27324	240.16088	-166.02618	290.49064	350.72641	-90.79539	228.97977	261.30486	-122.28977	693.47085	388.05586	-444.10907	732.96574	273.75268	-453.68386	540.92462	727.56997	-107.87961	512.55132	619.78445	-115.50079	457.05228	607.40306	-78.73122	437.58103	746.87654	-57.39703	408.61571	636.67094	-68.78243	614.30485	751.35645	-426.58931	677.63988	631.63615	-419.98629	516.70079	705.95074	-462.03014	584.14384	581.27402	-450.75981	584.71231	897.00143	-133.98579	406.31680	950.74209	-212.21925	596.70659	899.41335	-380.48403	407.50404	943.52354	-327.96128	504.66713	1393.79600	-240.74380	568.71109	1341.46039	-98.75795	546.84641	1373.23781	-404.70182	623.14012	1321.46394	-236.04998	619.40524	1321.38964	-280.98819	580.05210	1212.51541	-39.05732	482.68733	1021.44375	-69.95627	521.60000	1027.61614	-4.47530	592.67574	920.66766	-3.59534	643.99533	834.07561	-19.36566	617.28273	816.21206	1.61218	507.55988	1239.07371	-485.42531	398.06373	1067.65842	-436.93209	389.14720	1091.25494	-505.91065	418.49614	1002.25029	-556.22482	440.74777	874.78892	-575.57087	412.91366	872.98196	-585.49691	493.39559	830.13955	-165.12202	506.96628	825.58596	-353.96030	510.53472	840.33856	-165.52874	512.20148	830.20302	-328.09847	
62	0.61000000	358.97287	462.53642	-116.10823	348.46531	338.06518	-142.30945	182.66580	112.72507	-182.86119	125.78809	86.65598	-236.53029	280.17793	37.37349	-154.25947	321.56631	49.33143	-196.32817	680.60190	460.63003	-416.89224	755.56463	387.45846	-372.77329	803.24528	89.30262	-389.81518	771.07289	41.43876	-344.74792	940.13626	85.44314	-387.88898	958.05318	125.98120	-337.00727	301.75634	240.73446	-165.12121	295.75957	351.82525	-90.44194	232.58965	263.51445	-121.99877	701.17462	384.98217	-442.90320	739.19409	270.16081	-452.08606	550.93662	725.38171	-107.04280	521.60092	617.98070	-114.67528	465.95637	606.16875	-78.37774	447.48865	745.78739	-57.04634	417.60363	635.47011	-68.49038	626.18964	749.75583	-426.11914	688.23703	629.40721	-418.97999	528.06857	705.12193	-461.32071	594.32988	579.86171	-449.67373	596.89638	894.71656	-133.31309	418.96375	949.77727	-211.88053	609.45127	898.13388	-380.02136	420.26559	942.83032	-327.65154	515.19136	1392.58780	-244.54803	580.21907	1342.23175	-102.07049	557.04780	1371.20184	-408.13064	634.49799	1321.32242	-239.34654	630.51807	1320.77478	-284.35830	591.92443	1213.62590	-41.52666	494.17649	1022.67790	-71.34596	533.02775	1029.00443	-5.99524	603.58803	921.64385	-4.72727	654.37132	834.74257	-20.12577	627.70191	817.07139	1.01338	517.93133	1236.29131	-487.56721	409.52827	1064.78688	-436.71184	400.05996	1087.78770	-505.94578	429.03840	998.49047	-555.83224	450.83000	870.73630	-574.32053	422.88841	869.01058	-584.17715	505.31774	828.47588	-165.05036	519.27939	824.59585	-353.87997	522.47320	838.79069	-165.12292	524.30229	829.02683	-327.88159	
63	0.62000000	366.75505	462.34699	-115.91842	353.98949	337.84508	-141.58674	184.53814	115.10346	-181.95237	127.16669	90.24200	-235.71833	280.59632	37.38285	-153.79717	322.26662	48.68230	-195.81114	689.21702	458.09140	-415.85016	762.95825	384.23009	-371.42306	807.15459	86.37161	-388.65475	773.15053	41.08677	-343.57330	943.60133	78.32797	-385.55928	962.91311	117.82274	-334.34819	305.46314	241.39099	-164.22942	301.34342	353.03529	-90.15594	236.43437	265.90311	-121.81670	708.77490	382.17327	-441.71379	745.46996	266.84068	-450.41236	561.23027	723.17992	-106.27215	530.97981	616.12845	-113.89993	475.15461	604.94673	-78.07584	457.80248	744.67219	-56.87303	426.89235	634.26227	-68.29062	638.03700	748.07597	-425.84764	698.49696	626.96521	-418.39826	539.17865	704.48084	-460.46233	603.95629	578.50899	-448.60693	609.35927	892.38610	-132.68430	431.79746	948.93006	-211.51432	622.32329	896.86023	-379.54536	433.17473	942.32863	-327.38543	525.90275	1391.63923	-248.45429	591.72564	1343.12591	-105.45695	567.36064	1369.19659	-411.65309	645.98884	1321.31813	-242.73053	641.75311	1320.28581	-287.81261	603.79794	1214.86796	-44.05360	505.58481	1024.07707	-72.82495	544.40742	1030.53208	-7.59833	614.35404	922.69679	-5.88276	664.56612	835.46222	-20.86734	637.86812	818.00514	0.36721	528.46956	1233.54158	-489.80328	420.94473	1062.08414	-436.53773	411.13685	1084.38258	-506.07341	439.71774	994.76527	-555.50414	461.11808	866.74556	-573.15451	433.01097	865.09533	-582.89478	517.37974	826.86516	-165.01165	531.67816	823.69026	-353.83620	534.60803	837.22198	-164.76304	536.54355	827.94061	-327.67711	
64	0.63000000	374.99653	462.11425	-115.79857	359.90089	337.67626	-140.94371	186.55807	117.84972	-180.97256	128.84791	94.10891	-234.86634	281.08422	37.44628	-153.32534	323.02574	48.06614	-195.29170	697.30472	455.80254	-415.31049	770.18472	381.58131	-370.29296	811.21869	84.06239	-387.73247	775.09895	41.65768	-342.51577	946.91743	71.27871	-383.24723	967.84202	109.47833	-331.64765	309.47187	242.12952	-163.36072	307.32578	354.33482	-89.93077	240.62886	268.44482	-121.70543	716.28318	379.85322	-440.69531	751.89301	264.05431	-448.86321	571.81600	720.99851	-105.58312	540.73292	614.24728	-113.16805	484.67246	603.74138	-77.82078	468.49903	743.53540	-56.81791	436.50669	633.11963	-68.23309	649.81576	746.55554	-425.72407	708.41321	624.55971	-418.30130	550.04398	704.30702	-459.57536	613.04784	577.48805	-447.73408	622.06071	890.05428	-132.05711	444.72477	948.16192	-211.06594	635.21952	895.71365	-379.00115	446.09305	942.05478	-327.10420	536.90833	1391.06841	-252.44475	603.23239	1344.16888	-108.90828	577.80805	1367.22636	-415.29743	657.58394	1321.45123	-246.20628	653.09916	1319.91527	-291.35568	615.63321	1216.25155	-46.62951	516.89531	1025.63112	-74.38143	555.74312	1032.20310	-9.27966	624.98746	923.84009	-7.06418	674.58382	836.21415	-21.62145	647.81787	819.01927	-0.29888	539.17777	1230.81296	-492.13083	432.37361	1059.50321	-436.44692	422.38181	1081.02644	-506.29148	450.51499	991.06370	-555.24731	471.57708	862.80146	-572.07423	443.28941	861.22327	-581.66148	529.54673	825.31636	-164.98146	544.10686	822.94333	-353.80526	546.94250	835.60750	-164.40724	548.86514	827.02326	-327.43714	
65	0.64000000	383.77688	461.81285	-115.76565	366.29097	337.54193	-140.40545	188.80172	120.93023	-179.93474	130.88063	98.29064	-233.97226	281.66179	37.56260	-152.85761	323.86095	47.51707	-194.77692	704.97071	454.10238	-415.33615	777.30534	379.65747	-369.57386	815.36673	82.38972	-387.13495	777.07148	42.88809	-341.62092	950.10091	64.58265	-381.25664	972.74485	101.37029	-329.27471	313.88294	242.95180	-162.53226	313.80983	355.69980	-89.76477	245.31460	271.11022	-121.62146	723.73899	378.21817	-440.00268	758.45946	262.00684	-447.66991	582.69938	718.88631	-105.00251	550.91016	612.36924	-112.50218	494.56452	602.54794	-77.62420	479.54850	742.37872	-56.82162	446.49884	632.06508	-68.32980	661.47944	745.50135	-425.69851	718.06204	622.55139	-418.67717	560.72837	704.84511	-458.80513	621.76907	577.08728	-447.19683	634.95140	887.78619	-131.40849	457.66051	947.44470	-210.45503	648.02352	894.87059	-378.35523	458.88356	942.06381	-326.70213	548.24691	1390.91326	-256.51780	614.76240	1345.39354	-112.42249	588.41369	1365.30323	-419.07834	669.24028	1321.70670	-249.77777	664.55076	1319.65642	-294.98832	627.40580	1217.80033	-49.24753	528.11466	1027.34981	-76.01305	567.03934	1034.04290	-11.03883	635.50431	925.10402	-8.27694	684.42427	836.97527	-22.43204	657.57752	820.13643	-0.96276	550.06207	1228.10350	-494.53716	443.93064	1056.98361	-436.47455	433.81086	1077.71252	-506.59483	461.42728	987.39493	-555.06775	482.18863	858.90696	-571.08211	453.73210	857.39328	-580.48558	541.80197	823.84943	-164.94230	556.50229	822.47119	-353.76973	559.48069	833.94707	-164.03339	561.19884	826.38891	-327.13450	
